<svg width="18" height="18" viewBox="0 0 18 18" fill="none" xmlns="http://www.w3.org/2000/svg">
<path d="M4.66829 13.4465C4.77443 13.55 4.91757 13.6067 5.06579 13.604C5.21356 13.6043 5.35582 13.548 5.46329 13.4465L12.4608 6.44246V12.4865C12.4608 12.7972 12.7126 13.049 13.0233 13.049C13.1744 13.0531 13.3206 12.9954 13.4282 12.8893C13.5358 12.7831 13.5954 12.6377 13.5933 12.4865V5.18738C13.6128 5.10181 13.6123 5.01141 13.5898 4.92333C13.5389 4.72403 13.3833 4.5684 13.184 4.51751C13.0959 4.49501 13.0055 4.49456 12.92 4.51405H5.62079C5.31013 4.51405 5.05829 4.76589 5.05829 5.07655C5.05829 5.38721 5.31013 5.63905 5.62079 5.63905H11.6733L4.66829 12.644C4.56064 12.7498 4.5 12.8944 4.5 13.0453C4.5 13.1962 4.56064 13.3408 4.66829 13.4465Z" fill="#32D583"/>
</svg>
